<svg xmlns="http://www.w3.org/2000/svg" viewBox="0 0 64 64" fill="none">
  <rect width="64" height="64" rx="18" fill="#1f1b17"/>
  <path d="M37.5 17.5c-2.9-2-6.7-3-11.2-3-3.7 0-6.8.8-9.2 2.4-2.4 1.6-3.6 3.9-3.6 6.9 0 2.6.8 4.7 2.5 6.2 1.7 1.5 4.4 2.7 8.2 3.5l4.9 1.1c2.1.5 3.5 1 4.3 1.6.8.6 1.2 1.5 1.2 2.7 0 1.5-.7 2.6-2 3.4-1.4.8-3.3 1.2-5.8 1.2-3.8 0-7.7-1.1-11.7-3.4l-2.9 6c4.1 2.7 9 4.1 14.8 4.3V56h5.4v-5.5c4.3-.5 7.7-1.8 10.1-3.9 2.4-2.1 3.6-4.8 3.6-8.1 0-2.8-.9-5-2.6-6.6-1.7-1.6-4.7-2.8-8.8-3.7l-4.8-1.1c-1.9-.4-3.2-.9-3.9-1.4-.7-.5-1.1-1.2-1.1-2.2 0-1.2.6-2.2 1.8-2.9 1.2-.7 3-1 5.2-1 3.2 0 6.3.8 9.2 2.4l2.8-5.8ZM29.4 8h5.4v5.2h-5.4z" fill="#fff8ef"/>
</svg>
